<svg width="20" height="21" viewBox="0 0 20 21" fill="none" xmlns="http://www.w3.org/2000/svg">
<path  d="M16 1.00186C15.2044 1.00186 14.4413 1.31793 13.8787 1.88054C13.3161 2.44315 13 3.20621 13 4.00186V16.0019C13 16.7975 13.3161 17.5606 13.8787 18.1232C14.4413 18.6858 15.2044 19.0019 16 19.0019C16.7956 19.0019 17.5587 18.6858 18.1213 18.1232C18.6839 17.5606 19 16.7975 19 16.0019C19 15.2062 18.6839 14.4431 18.1213 13.8805C17.5587 13.3179 16.7956 13.0019 16 13.0019H4C3.20435 13.0019 2.44129 13.3179 1.87868 13.8805C1.31607 14.4431 1 15.2062 1 16.0019C1 16.7975 1.31607 17.5606 1.87868 18.1232C2.44129 18.6858 3.20435 19.0019 4 19.0019C4.79565 19.0019 5.55871 18.6858 6.12132 18.1232C6.68393 17.5606 7 16.7975 7 16.0019V4.00186C7 3.20621 6.68393 2.44315 6.12132 1.88054C5.55871 1.31793 4.79565 1.00186 4 1.00186C3.20435 1.00186 2.44129 1.31793 1.87868 1.88054C1.31607 2.44315 1 3.20621 1 4.00186C1 4.79751 1.31607 5.56057 1.87868 6.12318C2.44129 6.68579 3.20435 7.00186 4 7.00186H16C16.7956 7.00186 17.5587 6.68579 18.1213 6.12318C18.6839 5.56057 19 4.79751 19 4.00186C19 3.20621 18.6839 2.44315 18.1213 1.88054C17.5587 1.31793 16.7956 1.00186 16 1.00186Z" stroke="#000" stroke-width="2" stroke-linecap="round" stroke-linejoin="round"/>
</svg>
