<svg width="30" height="35" viewBox="0 0 30 35" fill="none" xmlns="http://www.w3.org/2000/svg">
<path d="M29.9385 13.9891V9.32131C29.9385 9.03294 29.8625 8.74963 29.7181 8.49987C29.5737 8.2501 29.366 8.04266 29.1159 7.8984L15.7898 0.219819C15.5398 0.0758098 15.2562 0 14.9675 0C14.6788 0 14.3952 0.0758098 14.1452 0.219819L0.822551 7.8984C0.572415 8.04266 0.36472 8.2501 0.220335 8.49987C0.0759497 8.74963 -4.01071e-05 9.03294 9.19949e-07 9.32131V13.9891C-5.62295e-05 14.2048 0.0424678 14.4184 0.125143 14.6177C0.207819 14.8171 0.329026 14.9982 0.481839 15.1507C0.634653 15.3032 0.816078 15.4242 1.01575 15.5068C1.21542 15.5893 1.42942 15.6317 1.64554 15.6317H9.56959L19.0478 21.4119C19.3055 21.5707 19.6024 21.6548 19.9052 21.6546H26.6474V23.7315L14.9681 30.4617L3.2902 23.7315V21.6546H13.7428L8.3586 18.3672H1.64554C1.42929 18.3672 1.21517 18.4098 1.01541 18.4924C0.815656 18.5751 0.634176 18.6962 0.481351 18.8489C0.328526 19.0017 0.207354 19.1829 0.12476 19.3824C0.0421666 19.5819 -0.000227725 19.7957 9.19949e-07 20.0116V24.6793C5.968e-05 24.9677 0.0760876 25.2511 0.220459 25.5009C0.364831 25.7507 0.57247 25.9583 0.822551 26.1027L14.1469 33.7817C14.3969 33.9259 14.6805 34.0019 14.9692 34.0019C15.258 34.0019 15.5416 33.9259 15.7916 33.7817L29.1159 26.1027C29.366 25.9583 29.5736 25.7507 29.718 25.5009C29.8624 25.2511 29.9384 24.9677 29.9385 24.6793V20.0116C29.9387 19.7957 29.8963 19.5819 29.8137 19.3824C29.7311 19.1829 29.6099 19.0017 29.4571 18.8489C29.3043 18.6962 29.1228 18.5751 28.9231 18.4924C28.7233 18.4098 28.5092 18.3672 28.2929 18.3672H20.368L10.8919 12.5874C10.6335 12.4294 10.3363 12.3458 10.0333 12.346H3.2902V10.2688L14.969 3.53849L26.6483 10.2688V12.346H16.1948L21.5799 15.6317H28.2929C28.7294 15.6317 29.1479 15.4586 29.4565 15.1506C29.7651 14.8425 29.9385 14.4247 29.9385 13.9891Z" fill="#222C34"/>
</svg>
